<?xml version="1.0" encoding="UTF-8" standalone="no"?>
<!-- Created with Inkscape (http://www.inkscape.org/) -->

<svg
   width="72.09314mm"
   height="107.21758mm"
   viewBox="0 0 72.09314 107.21758"
   version="1.1"
   id="svg1"
   inkscape:export-filename="MicLogo.png"
   inkscape:export-xdpi="96"
   inkscape:export-ydpi="96"
   xmlns:inkscape="http://www.inkscape.org/namespaces/inkscape"
   xmlns:sodipodi="http://sodipodi.sourceforge.net/DTD/sodipodi-0.dtd"
   xmlns="http://www.w3.org/2000/svg"
   xmlns:svg="http://www.w3.org/2000/svg">
  <sodipodi:namedview
     id="namedview1"
     pagecolor="#000000"
     bordercolor="#000000"
     borderopacity="0.25"
     inkscape:showpageshadow="2"
     inkscape:pageopacity="0.0"
     inkscape:pagecheckerboard="0"
     inkscape:deskcolor="#d1d1d1"
     inkscape:document-units="mm">
    <inkscape:page
       x="0"
       y="0"
       width="72.09314"
       height="107.21758"
       id="page2"
       margin="0"
       bleed="0" />
  </sodipodi:namedview>
  <defs
     id="defs1" />
  <g
     inkscape:label="Layer 1"
     inkscape:groupmode="layer"
     id="layer1"
     transform="translate(-16.196231,-9.8045038)">
    <path
       id="rect1"
       style="fill:#999999;fill-opacity:1;stroke-width:0.259816"
       d="m 52.259479,9.8045032 c -11.101229,0 -20.381917,7.5073958 -23.070467,17.7418578 h 9.870716 c 2.271813,0 4.100699,1.828887 4.100699,4.1007 0,2.271812 -1.828886,4.100698 -4.100699,4.100698 H 28.770591 c -0.124987,0 -0.248044,-0.0075 -0.37012,-0.01833 v 3.455609 c 0.122076,-0.01084 0.245133,-0.01833 0.37012,-0.01833 h 10.289137 c 2.271813,0 4.100699,1.828886 4.100699,4.100699 0,2.271813 -1.828886,4.100698 -4.100699,4.100698 H 28.770591 c -0.124987,0 -0.248044,-0.0075 -0.37012,-0.01833 v 3.455609 c 0.122076,-0.01084 0.245133,-0.01833 0.37012,-0.01833 h 10.289137 c 2.271813,0 4.100699,1.828885 4.100699,4.100698 0,2.271814 -1.828886,4.100699 -4.100699,4.100699 H 28.770591 c -0.124987,0 -0.248044,-0.0075 -0.37012,-0.01833 v 4.360831 c 0,13.217823 10.641186,23.85901 23.859008,23.85901 13.21782,0 23.858717,-10.641187 23.858717,-23.85901 V 33.663511 c 0,-13.217822 -10.640897,-23.8590078 -23.858717,-23.8590078 z" />
    <path
       id="path3"
       style="fill:#474747;fill-opacity:1;stroke:none;stroke-width:4.88492;stroke-dasharray:none;stroke-opacity:1"
       d="m 19.31626,58.568571 c -3.42109,-0.01044 -3.112842,4.688175 -3.112842,4.688175 0.20437,18.651363 14.544275,33.862229 32.773582,35.510485 v 11.842939 h -4.699523 c -1.776145,0 -3.206244,1.42982 -3.206244,3.20596 0,1.77615 1.430099,3.20595 3.206244,3.20595 h 15.508342 c 1.776146,0 3.205953,-1.4298 3.205953,-3.20595 0,-1.77614 -1.429807,-3.20596 -3.205953,-3.20596 H 55.240222 V 98.786725 c 18.350434,-1.528689 32.824021,-16.791751 33.029351,-35.529979 0,0 0.45971,-4.699405 -3.05174,-4.688175 -3.30833,0.01058 -3.05145,4.688175 -3.05145,4.688175 v 0.215323 0.215318 c 0,15.73892 -12.670625,28.409555 -28.409551,28.409555 h -2.91818 c -15.738874,0 -28.409261,-12.670635 -28.409261,-28.409555 v -0.215318 -0.215323 c 0,0 0.229019,-4.677973 -3.113131,-4.688175 z" />
  </g>
</svg>
