<?xml version="1.0" encoding="UTF-8" standalone="no"?>
<!-- Created with Inkscape (http://www.inkscape.org/) -->

<svg
   width="72.092995mm"
   height="107.21801mm"
   viewBox="0 0 72.092995 107.21801"
   version="1.1"
   id="svg1"
   xmlns:inkscape="http://www.inkscape.org/namespaces/inkscape"
   xmlns:sodipodi="http://sodipodi.sourceforge.net/DTD/sodipodi-0.dtd"
   xmlns="http://www.w3.org/2000/svg"
   xmlns:svg="http://www.w3.org/2000/svg">
  <sodipodi:namedview
     id="namedview1"
     pagecolor="#000000"
     bordercolor="#000000"
     borderopacity="0.25"
     inkscape:showpageshadow="2"
     inkscape:pageopacity="0.0"
     inkscape:pagecheckerboard="0"
     inkscape:deskcolor="#d1d1d1"
     inkscape:document-units="mm">
    <inkscape:page
       x="0"
       y="0"
       width="72.092995"
       height="107.21801"
       id="page2"
       margin="0"
       bleed="0" />
  </sodipodi:namedview>
  <defs
     id="defs1" />
  <g
     inkscape:label="Layer 1"
     inkscape:groupmode="layer"
     id="layer1"
     transform="translate(-4.2788508,-2.1245866)">
    <rect
       style="fill:#ffffff;fill-opacity:1;stroke-width:0.259815"
       id="rect1"
       width="47.717682"
       height="77.385674"
       x="16.483105"
       y="2.1245863"
       ry="23.859001" />
    <path
       id="path3"
       style="fill:#ffffff;fill-opacity:1;stroke:none;stroke-width:4.88492;stroke-dasharray:none;stroke-opacity:1"
       d="M 7.3988737,50.888796 C 3.977791,50.87835 4.2860374,55.576994 4.2860374,55.576994 4.4904075,74.228448 18.830287,89.439382 37.059561,91.087654 v 11.842996 h -4.699515 c -1.776141,0 -3.206238,1.42981 -3.206238,3.20597 0,1.77615 1.430097,3.20597 3.206238,3.20597 H 47.86836 c 1.776143,0 3.205947,-1.42982 3.205947,-3.20597 0,-1.77616 -1.429804,-3.20597 -3.205947,-3.20597 H 43.322771 V 91.107144 c 18.3504,-1.528694 32.82397,-16.791831 33.029285,-35.53015 0,0 0.45972,-4.699427 -3.051726,-4.688198 -3.308328,0.01058 -3.051444,4.688198 -3.051444,4.688198 v 0.215324 0.215319 c 0,15.738998 -12.670606,28.40969 -28.409502,28.40969 H 38.92121 c -15.738846,0 -28.40921,-12.670692 -28.40921,-28.40969 v -0.215319 -0.215324 c 0,0 0.229019,-4.677997 -3.1131263,-4.688198 z" />
  </g>
</svg>
