<?xml version="1.0" encoding="UTF-8" standalone="no"?>
<!-- Created with Inkscape (http://www.inkscape.org/) -->

<svg
   width="74.096878mm"
   height="107.6797mm"
   viewBox="0 0 74.096878 107.6797"
   version="1.1"
   id="svg1"
   xmlns:inkscape="http://www.inkscape.org/namespaces/inkscape"
   xmlns:sodipodi="http://sodipodi.sourceforge.net/DTD/sodipodi-0.dtd"
   xmlns="http://www.w3.org/2000/svg"
   xmlns:svg="http://www.w3.org/2000/svg">
  <sodipodi:namedview
     id="namedview1"
     pagecolor="#000000"
     bordercolor="#000000"
     borderopacity="0.25"
     inkscape:showpageshadow="2"
     inkscape:pageopacity="0.0"
     inkscape:pagecheckerboard="0"
     inkscape:deskcolor="#d1d1d1"
     inkscape:document-units="mm">
    <inkscape:page
       x="-1.1788196e-14"
       y="0"
       width="74.09687"
       height="107.6797"
       id="page2"
       margin="0"
       bleed="0" />
  </sodipodi:namedview>
  <defs
     id="defs1" />
  <g
     inkscape:label="Layer 1"
     inkscape:groupmode="layer"
     id="layer1"
     transform="translate(-3.2772712,-2.6628866)">
    <path
       id="rect1"
       style="fill:#ffffff;fill-opacity:1;stroke-width:0.252678"
       d="m 40.459546,2.6628866 c -7.144656,0 -13.51188,3.1998181 -17.761707,8.2470414 0.08316,0.08963 0.168762,0.176146 0.24753,0.271818 l 40.129334,48.741211 c 0.380664,-1.672713 0.588078,-3.412565 0.588078,-5.203816 V 25.866638 c 0,-12.85478 -10.348541,-23.2037514 -23.203235,-23.2037514 z M 17.369482,23.560319 c -0.0742,0.758509 -0.113688,1.527678 -0.113688,2.306319 v 28.852503 c 0,12.85478 10.349058,23.203751 23.203752,23.203751 6.33296,0 12.054398,-2.515401 16.233118,-6.601147 z" />
    <path
       id="path3"
       style="fill:#ffffff;fill-opacity:1;stroke:#ffffff;stroke-width:2;stroke-dasharray:none;stroke-opacity:1"
       d="M 7.3988737,50.888796 C 3.977791,50.87835 4.2860374,55.576994 4.2860374,55.576994 4.4904075,74.228448 18.830287,89.439382 37.059561,91.087654 v 11.842996 h -8.407144 c -1.776141,0 -3.206238,1.42981 -3.206238,3.20597 0,1.77615 1.430097,3.20597 3.206238,3.20597 h 22.923572 c 1.776143,0 3.205947,-1.42982 3.205947,-3.20597 0,-1.77616 -1.429804,-3.20597 -3.205947,-3.20597 H 43.322771 V 91.107144 c 18.3504,-1.528694 32.82397,-16.791831 33.029285,-35.53015 0,0 0.45972,-4.699427 -3.051726,-4.688198 -3.308328,0.01058 -3.051444,4.688198 -3.051444,4.688198 v 0.215324 0.215319 c 0,15.738998 -12.670606,28.40969 -28.409502,28.40969 H 38.92121 c -15.738846,0 -28.40921,-12.670692 -28.40921,-28.40969 v -0.215319 -0.215324 c 0,0 0.229019,-4.677997 -3.1131263,-4.688198 z"
       inkscape:export-filename="MicLogo_Simple.svg"
       inkscape:export-xdpi="96"
       inkscape:export-ydpi="96"
       sodipodi:nodetypes="scccsssssscccsccssssccs" />
    <rect
       style="fill:#c73838;fill-opacity:1;stroke:none;stroke-width:1.38141;stroke-dasharray:none;stroke-opacity:1"
       id="rect7"
       width="79.96154"
       height="9.1759129"
       x="16.09054"
       y="-9.4547281"
       ry="4.5879564"
       transform="rotate(50.769445)" />
  </g>
</svg>
