<?xml version="1.0" encoding="UTF-8" standalone="no"?>
<!-- Created with Inkscape (http://www.inkscape.org/) -->

<svg
   width="72.09288mm"
   height="106.6798mm"
   viewBox="0 0 72.09288 106.6798"
   version="1.1"
   id="svg1"
   xmlns:inkscape="http://www.inkscape.org/namespaces/inkscape"
   xmlns:sodipodi="http://sodipodi.sourceforge.net/DTD/sodipodi-0.dtd"
   xmlns="http://www.w3.org/2000/svg"
   xmlns:svg="http://www.w3.org/2000/svg">
  <sodipodi:namedview
     id="namedview1"
     pagecolor="#000000"
     bordercolor="#000000"
     borderopacity="0.25"
     inkscape:showpageshadow="2"
     inkscape:pageopacity="0.0"
     inkscape:pagecheckerboard="0"
     inkscape:deskcolor="#d1d1d1"
     inkscape:document-units="mm">
    <inkscape:page
       x="0"
       y="0"
       width="72.09288"
       height="106.6798"
       id="page2"
       margin="0"
       bleed="0" />
  </sodipodi:namedview>
  <defs
     id="defs1" />
  <g
     inkscape:label="Layer 1"
     inkscape:groupmode="layer"
     id="layer1"
     transform="translate(-4.2788662,-2.6628866)">
    <path
       id="rect1"
       style="fill:#ffffff;fill-opacity:1;stroke-width:0.252678"
       d="m 40.459546,2.6628866 c -7.410056,0 -13.972971,3.4504107 -18.215426,8.8258174 l 38.8059,53.934176 c 1.661054,-3.201152 2.612761,-6.834767 2.612761,-10.703739 V 25.866638 c 0,-12.85478 -10.348541,-23.2037514 -23.203235,-23.2037514 z M 17.278015,25.427389 c -0.0027,0.147653 -0.02222,0.290916 -0.02222,0.439249 v 28.852503 c 0,12.85478 10.349058,23.203751 23.203752,23.203751 4.456104,0 8.596188,-1.265644 12.123291,-3.426147 z M 7.3990316,50.888883 C 3.9779489,50.878437 4.2860433,55.576969 4.2860433,55.576969 4.4904134,74.228423 18.830479,89.439191 37.059753,91.087463 v 11.843207 h -8.407238 c -1.776141,0 -3.206523,1.42984 -3.206523,3.206 0,1.77615 1.430382,3.20601 3.206523,3.20601 H 51.57618 c 1.776143,0 3.206006,-1.42986 3.206006,-3.20601 0,-1.77616 -1.429863,-3.206 -3.206006,-3.206 H 43.322937 V 91.1071 c 6.235866,-0.519483 12.021349,-2.628508 16.954004,-5.917468 l -3.56309,-4.951636 c -4.321642,2.650692 -9.412506,4.179073 -14.874544,4.179073 h -2.918168 c -15.738846,0 -28.409119,-12.670637 -28.409119,-28.409635 V 55.79246 55.576969 c 0,0 0.229157,-4.677885 -3.1129884,-4.688086 z m 65.9014034,0 c -3.308328,0.01058 -3.051493,4.688086 -3.051493,4.688086 v 0.215491 0.214974 c 0,5.804878 -1.727839,11.189242 -4.693254,15.677596 l 3.634921,5.051888 c 4.419156,-5.911214 7.074331,-13.220813 7.16132,-21.159949 0,0 0.459952,-4.699315 -3.051494,-4.688086 z" />
    <rect
       style="fill:#c73838;fill-opacity:1;stroke:none;stroke-width:1.54048;stroke-dasharray:none;stroke-opacity:1"
       id="rect7"
       width="99.436935"
       height="9.1759167"
       x="13.632289"
       y="-9.9490013"
       ry="4.5879583"
       transform="matrix(0.58407357,0.81170072,-0.81137742,0.58452261,0,0)"
       inkscape:export-filename="micOff_Icon.svg"
       inkscape:export-xdpi="96"
       inkscape:export-ydpi="96" />
  </g>
</svg>
